name GIL01_static.mot
datacolumns 141
datarows 4
range 0.30000001 0.32499999
endheader

                time	           pelvis_tx	           pelvis_ty	           pelvis_tz	         pelvis_tilt	         pelvis_list	     pelvis_rotation	       hip_flexion_r	     hip_adduction_r	      hip_rotation_r	        knee_angle_r	       ankle_angle_r	    subtalar_angle_r	         mtp_angle_r	       hip_flexion_l	     hip_adduction_l	      hip_rotation_l	        knee_angle_l	       ankle_angle_l	    subtalar_angle_l	         mtp_angle_l	    lumbar_extension	      lumbar_bending	     lumbar_rotation	    ground_marker_px	    ground_marker_py	    ground_marker_pz	    ground_marker_px	    ground_marker_py	    ground_marker_pz	    ground_marker_px	    ground_marker_py	    ground_marker_pz	    ground_marker_px	    ground_marker_py	    ground_marker_pz	    ground_marker_px	    ground_marker_py	    ground_marker_pz	    ground_marker_px	    ground_marker_py	    ground_marker_pz	    ground_marker_px	    ground_marker_py	    ground_marker_pz	    ground_marker_px	    ground_marker_py	    ground_marker_pz	    ground_marker_px	    ground_marker_py	    ground_marker_pz	    ground_marker_px	    ground_marker_py	    ground_marker_pz	    ground_marker_px	    ground_marker_py	    ground_marker_pz	    ground_marker_px	    ground_marker_py	    ground_marker_pz	    ground_marker_px	    ground_marker_py	    ground_marker_pz	    ground_marker_px	    ground_marker_py	    ground_marker_pz	    ground_marker_px	    ground_marker_py	    ground_marker_pz	    ground_marker_px	    ground_marker_py	    ground_marker_pz	    ground_marker_px	    ground_marker_py	    ground_marker_pz	    ground_marker_px	    ground_marker_py	    ground_marker_pz	    ground_marker_px	    ground_marker_py	    ground_marker_pz	    ground_marker_px	    ground_marker_py	    ground_marker_pz	    ground_marker_px	    ground_marker_py	    ground_marker_pz	    ground_marker_px	    ground_marker_py	    ground_marker_pz	    ground_marker_px	    ground_marker_py	    ground_marker_pz	    ground_marker_px	    ground_marker_py	    ground_marker_pz	    ground_marker_px	    ground_marker_py	    ground_marker_pz	    ground_marker_px	    ground_marker_py	    ground_marker_pz	    ground_marker_px	    ground_marker_py	    ground_marker_pz	    ground_marker_px	    ground_marker_py	    ground_marker_pz	    ground_marker_px	    ground_marker_py	    ground_marker_pz	    ground_marker_px	    ground_marker_py	    ground_marker_pz	    ground_marker_px	    ground_marker_py	    ground_marker_pz	    ground_marker_px	    ground_marker_py	    ground_marker_pz	    ground_marker_px	    ground_marker_py	    ground_marker_pz	    ground_marker_px	    ground_marker_py	    ground_marker_pz	    ground_marker_px	    ground_marker_py	    ground_marker_pz	    ground_marker_px	    ground_marker_py	    ground_marker_pz	    ground_marker_px	    ground_marker_py	    ground_marker_pz	    ground_marker_px	    ground_marker_py	    ground_marker_pz	    ground_marker_px	    ground_marker_py	    ground_marker_pz	
          0.30000001	          0.61143374	          0.80954307	         -0.25628680	         -4.00209808	          0.57666832	         -7.43393707	         -3.63446236	         -6.79510832	          2.17259383	         13.70146561	         -7.38753033	          0.00000000	          0.00000000	         -7.75727129	         -4.34388113	         -9.89989662	         12.85920429	         -3.05481219	          0.00000000	          0.00000000	          3.39569354	          5.34227467	          5.18789482	          0.53912920	          0.74314946	         -0.26381069	          0.53084630	          0.74484837	         -0.19920389	          0.54741210	          0.74145055	         -0.32841751	          0.47972631	          0.40650737	         -0.15570006	          0.48440036	          0.42409945	         -0.35293674	          0.51142257	          0.06684049	         -0.11936427	          0.49446413	          0.07034808	         -0.39081156	          0.61143374	          0.80954307	         -0.25628680	          0.59809995	          0.81227803	         -0.15228282	          0.62476760	          0.80680811	         -0.36029080	          0.45298347	          0.85564125	         -0.24407847	          0.45655492	          0.85362273	         -0.29903400	          0.47570997	          0.41409934	         -0.10137482	          0.48294237	          0.42858392	         -0.40723237	          0.48555976	          0.40674773	         -0.20749480	          0.48950934	          0.40022194	         -0.30555442	          0.49935865	          0.06950235	         -0.08395767	          0.48417497	          0.07384212	         -0.42617998	          0.51523083	          0.06586847	         -0.14196265	          0.49774733	          0.06652902	         -0.37234202	          0.47780022	          0.03746638	         -0.14388368	          0.43721324	          0.04128227	         -0.38089722	          0.55181551	          1.17247593	         -0.27363488	          0.58870214	          1.09370422	         -0.27517900	          0.45910946	          1.21881664	         -0.28814584	          0.56443119	          1.17240739	         -0.23415551	          0.56719869	          1.17743766	         -0.30895445	          0.60720861	          0.03658667	         -0.08500075	          0.59588701	          0.03890758	         -0.42058685	          0.59106851	          0.52867466	         -0.05691475	          0.65862626	          0.52662218	         -0.35673168	          0.52623659	          0.58851629	         -0.09823862	          0.59844577	          0.59746605	         -0.38253641	          0.51524007	          0.50136459	         -0.10625864	          0.57364082	          0.51361203	         -0.38544160	          0.46635538	          0.18521155	         -0.02132810	          0.49008632	          0.20558491	         -0.48779923	          0.48063669	          0.14455146	         -0.09174966	          0.47842166	          0.15839215	         -0.41914782	
          0.30833334	          0.61134505	          0.80953968	         -0.25627708	         -4.00788689	          0.57392949	         -7.43720579	         -3.62051582	         -6.79259253	          2.15867209	         13.70319843	         -7.39637232	          0.00000000	          0.00000000	         -7.74092960	         -4.34953737	         -9.90668964	         12.85195255	         -3.05914545	          0.00000000	          0.00000000	          3.37734985	          5.30693054	          5.26883268	          0.53903413	          0.74315298	         -0.26379991	          0.53074867	          0.74485672	         -0.19919354	          0.54731953	          0.74144918	         -0.32840624	          0.47967520	          0.40650457	         -0.15567432	          0.48437667	          0.42411622	         -0.35292590	          0.51143360	          0.06685548	         -0.11934968	          0.49446493	          0.07036041	         -0.39081517	          0.61134505	          0.80953968	         -0.25627708	          0.59800684	          0.81228244	         -0.15227067	          0.62468332	          0.80679685	         -0.36028349	          0.45292902	          0.85564524	         -0.24405627	          0.45647246	          0.85363275	         -0.29900706	          0.47564232	          0.41410047	         -0.10135085	          0.48291445	          0.42860153	         -0.40722132	          0.48555961	          0.40676200	         -0.20749713	          0.48966038	          0.40009636	         -0.30550188	          0.49935901	          0.06951276	         -0.08394637	          0.48417196	          0.07385492	         -0.42618245	          0.51526177	          0.06589542	         -0.14194837	          0.49775580	          0.06653632	         -0.37234870	          0.47779837	          0.03747882	         -0.14387867	          0.43721455	          0.04129357	         -0.38089699	          0.55169374	          1.17247581	         -0.27366334	          0.58854645	          1.09368825	         -0.27520713	          0.45904064	          1.21883011	         -0.28816223	          0.56436312	          1.17242742	         -0.23419946	          0.56703091	          1.17740881	         -0.30900863	          0.60720497	          0.03658275	         -0.08499703	          0.59588659	          0.03891386	         -0.42058566	          0.59100378	          0.52868491	         -0.05688554	          0.65853465	          0.52671510	         -0.35687754	          0.52615863	          0.58853227	         -0.09820030	          0.59833044	          0.59744066	         -0.38253024	          0.51519352	          0.50136179	         -0.10624013	          0.57360023	          0.51361912	         -0.38544452	          0.46633157	          0.18521003	         -0.02131886	          0.49007356	          0.20559430	         -0.48779792	          0.48061344	          0.14453818	         -0.09174428	          0.47840953	          0.15842523	         -0.41914737	
          0.31666666	          0.61125469	          0.80954421	         -0.25626427	         -4.01193047	          0.56960773	         -7.44237089	         -3.60929203	         -6.78755522	          2.14595914	         13.70791340	         -7.40693808	          0.00000000	          0.00000000	         -7.72748947	         -4.35735846	         -9.91421604	         12.84519100	         -3.06337452	          0.00000000	          0.00000000	          3.36076450	          5.25825644	          5.32179165	          0.53893948	          0.74316192	         -0.26378536	          0.53064990	          0.74487257	         -0.19917972	          0.54722899	          0.74145120	         -0.32839099	          0.47961763	          0.40650794	         -0.15565111	          0.48435009	          0.42413259	         -0.35291585	          0.51145077	          0.06687655	         -0.11934121	          0.49446183	          0.07036938	         -0.39081937	          0.61125469	          0.80954421	         -0.25626427	          0.59790993	          0.81229806	         -0.15225996	          0.62459952	          0.80679035	         -0.36026856	          0.45287451	          0.85565090	         -0.24403745	          0.45638525	          0.85364634	         -0.29898453	          0.47556776	          0.41410691	         -0.10132935	          0.48288479	          0.42861933	         -0.40721110	          0.48556799	          0.40677857	         -0.20751739	          0.48966849	          0.40004015	         -0.30551368	          0.49936521	          0.06952839	         -0.08394124	          0.48416600	          0.07386437	         -0.42618573	          0.51526290	          0.06590854	         -0.14193870	          0.49774873	          0.06655584	         -0.37234718	          0.47779381	          0.03748881	         -0.14387308	          0.43721420	          0.04130250	         -0.38089809	          0.55153298	          1.17248416	         -0.27367204	          0.58835250	          1.09368026	         -0.27517566	          0.45897004	          1.21883464	         -0.28819937	          0.56423581	          1.17246604	         -0.23421398	          0.56684220	          1.17737913	         -0.30903983	          0.60719568	          0.03658570	         -0.08499216	          0.59587932	          0.03892871	         -0.42058739	          0.59093171	          0.52869779	         -0.05685591	          0.65843952	          0.52682096	         -0.35704041	          0.52609646	          0.58855116	         -0.09817153	          0.59822947	          0.59743595	         -0.38250637	          0.51514906	          0.50135022	         -0.10623439	          0.57349908	          0.51365864	         -0.38546804	          0.46630019	          0.18521063	         -0.02131152	          0.49006212	          0.20560111	         -0.48779508	          0.48060125	          0.14453645	         -0.09174164	          0.47840098	          0.15846059	         -0.41915172	
          0.32499999	          0.61116588	          0.80955422	         -0.25624773	         -4.01454163	          0.56338865	         -7.44919157	         -3.60089016	         -6.77961397	          2.13450384	         13.71561909	         -7.41905165	          0.00000000	          0.00000000	         -7.71678543	         -4.36786127	         -9.92093468	         12.83915710	         -3.06745863	          0.00000000	          0.00000000	          3.32896304	          5.21673155	          5.46614933	          0.53884804	          0.74317431	         -0.26376581	          0.53055316	          0.74489415	         -0.19916111	          0.54714298	          0.74145442	         -0.32837054	          0.47955477	          0.40651619	         -0.15562986	          0.48432198	          0.42414352	         -0.35290673	          0.51147360	          0.06689841	         -0.11933422	          0.49445722	          0.07037292	         -0.39082167	          0.61116588	          0.80955422	         -0.25624773	          0.59781331	          0.81232274	         -0.15225203	          0.62451839	          0.80678564	         -0.36024341	          0.45281810	          0.85565668	         -0.24402259	          0.45629674	          0.85366321	         -0.29896680	          0.47548783	          0.41411728	         -0.10130966	          0.48285601	          0.42863214	         -0.40720183	          0.48566619	          0.40680364	         -0.20757057	          0.48966867	          0.40001673	         -0.30548769	          0.49937683	          0.06954441	         -0.08393764	          0.48416030	          0.07386824	         -0.42618769	          0.51523924	          0.06591614	         -0.14193700	          0.49772903	          0.06657195	         -0.37234840	          0.47778738	          0.03749393	         -0.14386846	          0.43721232	          0.04130720	         -0.38090149	          0.55131865	          1.17250502	         -0.27366531	          0.58809310	          1.09368062	         -0.27519500	          0.45889032	          1.21885192	         -0.28822947	          0.56411642	          1.17251086	         -0.23422502	          0.56654537	          1.17736459	         -0.30908695	          0.60718632	          0.03659158	         -0.08498883	          0.59586799	          0.03894816	         -0.42058939	          0.59085405	          0.52871239	         -0.05682459	          0.65835690	          0.52691847	         -0.35718429	          0.52601862	          0.58858055	         -0.09813732	          0.59811735	          0.59744680	         -0.38250208	          0.51513052	          0.50134236	         -0.10624021	          0.57338953	          0.51370555	         -0.38548520	          0.46626151	          0.18521386	         -0.02130574	          0.49005416	          0.20560329	         -0.48779014	          0.48059213	          0.14454983	         -0.09172484	          0.47837913	          0.15848584	         -0.41916814	
